<?xml version="1.0" standalone="no"?>
<!DOCTYPE svg PUBLIC "-//W3C//DTD SVG 20010904//EN"
 "http://www.w3.org/TR/2001/REC-SVG-20010904/DTD/svg10.dtd">
<svg version="1.0" xmlns="http://www.w3.org/2000/svg"
 width="512.000000pt" height="512.000000pt" viewBox="0 0 512.000000 512.000000"
 preserveAspectRatio="xMidYMid meet">
<metadata>
Created by potrace 1.14, written by Peter Selinger 2001-2017
</metadata>
<g transform="translate(0.000000,512.000000) scale(0.100000,-0.100000)"
fill="#000000" stroke="none">
<path d="M1145 5104 c-67 -38 -158 -171 -185 -274 -21 -77 -21 -83 -21 -165 1
-144 47 -261 146 -379 127 -150 130 -262 10 -430 -42 -58 -45 -100 -13 -158
36 -64 115 -94 182 -68 59 22 151 145 185 247 70 207 31 406 -112 575 -60 70
-81 106 -92 158 -20 90 4 173 72 257 34 41 38 52 38 102 -1 65 -20 99 -75 129
-45 24 -97 26 -135 6z"/>
<path d="M2063 5114 c-12 -3 -41 -24 -64 -47 -136 -135 -190 -334 -145 -530
23 -100 73 -191 149 -272 101 -108 103 -281 5 -385 -52 -55 -60 -109 -27 -177
24 -49 77 -83 131 -83 102 0 230 171 263 351 31 163 -21 343 -138 481 -30 34
-61 77 -70 93 -16 32 -35 121 -31 146 6 39 26 97 41 120 74 108 83 125 83 157
0 40 -31 99 -65 125 -25 18 -94 29 -132 21z"/>
<path d="M2945 5104 c-44 -24 -100 -90 -139 -164 -119 -224 -81 -486 98 -675
104 -110 103 -276 -3 -393 -51 -57 -52 -143 -1 -202 21 -24 80 -50 115 -50 88
0 205 142 247 300 50 191 2 392 -128 535 -51 56 -78 103 -89 155 -18 80 3 172
51 229 66 77 79 133 45 199 -34 67 -132 100 -196 66z"/>
<path d="M100 3302 c-39 -18 -63 -40 -81 -75 -18 -35 -19 -52 -14 -210 3 -95
7 -181 9 -192 2 -11 7 -51 11 -90 13 -140 54 -371 86 -490 6 -22 13 -48 14
-57 2 -10 20 -71 41 -135 129 -414 328 -783 580 -1073 l69 -80 1295 0 1296 0
48 57 c27 32 80 102 119 155 l71 98 101 1 c55 1 111 3 125 4 442 37 834 280
1063 661 71 119 144 315 163 437 2 15 6 39 9 55 11 55 14 238 4 282 -18 84
-66 168 -129 231 -33 32 -65 59 -72 59 -6 0 -19 6 -27 14 -19 16 -102 44 -151
50 -19 3 -143 5 -276 5 l-241 1 4 80 c5 79 -7 142 -32 166 -7 7 -27 22 -46 33
l-34 21 -1995 -1 c-1097 0 -2002 -3 -2010 -7z m4621 -604 c78 -26 106 -91 95
-220 -17 -195 -87 -382 -201 -534 -127 -169 -244 -259 -480 -365 -37 -17 -176
-49 -241 -55 l-64 -7 50 102 c27 56 50 107 50 114 0 7 4 17 9 22 35 38 186
529 206 671 3 21 10 59 15 84 8 41 30 181 30 194 0 12 496 6 531 -6z"/>
<path d="M310 582 c-97 -52 -109 -165 -28 -249 145 -151 433 -290 664 -320 32
-4 565 -8 1184 -8 l1125 0 100 22 c147 33 291 93 415 172 70 45 189 149 205
181 32 62 10 152 -48 194 l-28 21 -1777 3 c-1716 2 -1778 2 -1812 -16z"/>
</g>
</svg>
